<svg width="26" height="26" viewBox="0 0 26 26" fill="none" xmlns="http://www.w3.org/2000/svg">
<path d="M20.8619 11.7481L21.4365 11.1736L19.7128 9.44985L16.5552 6.29228L14.8315 4.56857L14.257 5.14314L13.1078 6.29228L2.97917 16.4209C2.45036 16.9497 2.06393 17.6057 1.85037 18.3226L0.0503978 24.4445C-0.0767189 24.8717 0.0402284 25.3344 0.360563 25.6496C0.680897 25.9649 1.13852 26.0818 1.56563 25.9598L7.68248 24.1598C8.39942 23.9462 9.05534 23.5598 9.58415 23.031L19.7128 12.9023L20.8619 11.7481ZM8.13502 20.3107L7.67231 21.4649C7.46893 21.6225 7.24012 21.7395 6.99605 21.8158L3.01984 22.9852L4.18932 19.0141C4.2605 18.765 4.38253 18.5362 4.54016 18.3379L5.69438 17.8751V19.5022C5.69438 19.9497 6.06047 20.3158 6.50793 20.3158H8.13502V20.3107ZM18.4416 0.953375L17.7094 1.69065L16.5603 2.83979L15.9807 3.41435L17.7044 5.13806L20.8619 8.29564L22.5856 10.0193L23.1602 9.44477L24.3093 8.29564L25.0466 7.55836C26.3178 6.28719 26.3178 4.2279 25.0466 2.95673L23.0483 0.953375C21.7772 -0.317792 19.7179 -0.317792 18.4467 0.953375H18.4416ZM16.0315 9.49562L8.70959 16.8175C8.39434 17.1328 7.8757 17.1328 7.56045 16.8175C7.2452 16.5023 7.2452 15.9837 7.56045 15.6684L14.8824 8.34648C15.1976 8.03123 15.7163 8.03123 16.0315 8.34648C16.3468 8.66173 16.3468 9.18037 16.0315 9.49562Z" fill="#D1477C"/>
</svg>
