<svg width="258" height="60" viewBox="0 0 258 60" fill="none" xmlns="http://www.w3.org/2000/svg">
<g clip-path="url(#clip0_2_570)">
<path d="M94.0397 30.2007C95.6929 29.5712 96.5575 28.2569 96.5575 26.3408V23.7123C96.5575 22.0314 96.1217 20.8001 95.264 20.0531C94.4201 19.3199 93.1266 18.9532 91.4042 18.9532H72.8107V42.3058H90.0484C94.4547 42.3058 96.689 40.6872 96.689 37.5052V34.6138C96.689 32.3727 95.7966 30.8924 94.0397 30.2007ZM77.3346 31.93H90C90.8301 31.93 91.4111 32.096 91.6809 32.4072C91.9714 32.7462 92.1167 33.3687 92.1167 34.2611V36.1425C92.1167 37.021 91.9714 37.6505 91.6878 37.9687C91.418 38.2731 90.837 38.4322 90 38.4322H77.3346V31.923V31.93ZM91.9437 26.6037C91.9437 27.3646 91.7224 28.2362 90.0069 28.2362H77.3415V22.737H90.0069C90.92 22.737 91.3627 22.903 91.5633 23.0413C91.8123 23.2143 91.9437 23.657 91.9437 24.3279V26.6037Z" fill="white"/>
<path d="M105.093 18.9532H100.57V42.3058H105.093V18.9532Z" fill="white"/>
<path d="M135.342 20.1845C134.533 19.3544 133.08 18.9532 130.908 18.9532H115.276C113.11 18.9532 111.651 19.3544 110.828 20.1845C110.005 21.0146 109.596 22.481 109.596 24.6807V36.5922C109.596 38.7918 109.998 40.2583 110.828 41.0884C111.658 41.9184 113.11 42.3196 115.276 42.3196H130.908C133.08 42.3196 134.526 41.9184 135.342 41.0884C136.152 40.2652 136.546 38.7918 136.546 36.5991V24.6876C136.546 22.4949 136.152 21.0215 135.342 20.1983V20.1845ZM132.064 22.7785V38.3906H114.127V22.7785H132.064Z" fill="white"/>
<path d="M162.589 18.9532V32.2482C162.589 33.6247 162.645 34.8836 162.762 35.9973C162.154 35.2779 161.559 34.6623 160.991 34.1573L143.982 18.9532H141.091V42.3058H145.31V28.3053C145.31 27.0672 145.269 25.9258 145.179 24.8813C145.787 25.5938 146.285 26.1195 146.687 26.4861L164.18 42.3058H166.809V18.9532H162.589Z" fill="white"/>
<path d="M175.767 18.9532H171.243V42.3058H175.767V18.9532Z" fill="white"/>
<path d="M219.816 18.9532H215.34L202.578 42.3058H207.171L210.062 36.7443H224.879L227.77 42.3058H232.806L219.816 18.9532ZM222.942 33.0921H212.034L217.491 22.7301L222.949 33.0921H222.942Z" fill="white"/>
<path d="M240.125 38.3976V18.9532H235.594V42.3058H257.238V38.3976H240.125Z" fill="white"/>
<path d="M198.649 38.3975H184.807V22.7853H198.69L201.277 18.9601H185.956C183.791 18.9601 182.331 19.3613 181.508 20.1913C180.685 21.0214 180.277 22.4879 180.277 24.6875V36.599C180.277 38.7987 180.678 40.2651 181.508 41.0952C182.338 41.9253 183.791 42.3265 185.956 42.3265H201.298L198.649 38.4113V38.3975Z" fill="white"/>
<path d="M75.965 60C74.6784 60 73.6615 59.7994 72.9145 59.3982L73.0874 57.9179C73.9244 58.5405 74.8928 58.8518 75.9926 58.8518C76.3108 58.8518 76.6083 58.8241 76.878 58.7618C77.1478 58.7065 77.383 58.6166 77.5836 58.499C77.7842 58.3814 77.9364 58.2292 78.047 58.0425C78.1577 57.8626 78.2131 57.6482 78.2131 57.4061C78.2131 57.164 78.1577 56.9426 78.0401 56.7628C77.9225 56.5829 77.7634 56.4169 77.5559 56.2786C77.3484 56.1333 77.0925 56.0088 76.795 55.8912C76.4976 55.7736 76.1656 55.656 75.7989 55.5315L74.8651 55.2271C74.1111 54.9781 73.5716 54.6669 73.2465 54.3002C72.9214 53.9336 72.7623 53.4909 72.7623 52.986C72.7623 52.7231 72.8176 52.4257 72.9214 52.1144C73.0251 51.7962 73.205 51.5057 73.4609 51.2359C73.7169 50.9661 74.0558 50.7379 74.4847 50.5649C74.9135 50.392 75.46 50.2952 76.1171 50.2952C76.3869 50.2952 76.6567 50.3159 76.9403 50.3505C77.2239 50.3851 77.5006 50.4335 77.7634 50.4888C78.0263 50.5442 78.2684 50.6134 78.4897 50.6964C78.7111 50.7794 78.8979 50.8555 79.05 50.9385L78.9186 52.2873C77.798 51.727 76.9057 51.4503 76.2416 51.4503C75.9857 51.4503 75.7298 51.478 75.4738 51.5333C75.2179 51.5887 74.9965 51.6717 74.8029 51.7893C74.6092 51.9069 74.4501 52.0452 74.3325 52.2182C74.2149 52.3842 74.1526 52.5917 74.1526 52.8338C74.1526 53.2281 74.3187 53.5255 74.6507 53.7469C74.9827 53.9613 75.4877 54.1826 76.1656 54.3902C76.3523 54.4524 76.4907 54.4939 76.5737 54.5078C76.6567 54.5285 76.7397 54.5423 76.8227 54.57C76.9057 54.5908 77.0095 54.6253 77.1478 54.6738C77.2861 54.7222 77.5075 54.8121 77.8049 54.9435L78.2615 55.1856C78.3791 55.2479 78.469 55.3032 78.5451 55.3447C78.6212 55.3862 78.6834 55.4347 78.7249 55.4762L79.057 55.822C79.2576 56.0365 79.3959 56.2647 79.4651 56.5137C79.5342 56.7628 79.5757 57.0602 79.6034 57.4061C79.6034 57.6689 79.5619 57.9525 79.4858 58.25C79.4028 58.5474 79.2368 58.8241 78.9809 59.08C78.7249 59.336 78.3583 59.5504 77.881 59.7233C77.4037 59.8963 76.7674 59.9862 75.9719 59.9931L75.965 60Z" fill="white"/>
<path d="M89.2322 58.6788C88.3814 59.5573 87.2746 60 85.9258 60C85.2479 60 84.6322 59.8824 84.065 59.6541C83.4978 59.4259 83.0136 59.0938 82.6124 58.6719C82.2112 58.2499 81.893 57.745 81.6647 57.1432C81.4365 56.5483 81.3258 55.8842 81.3258 55.1441C81.3258 54.404 81.4434 53.7399 81.6717 53.145C81.8999 52.5501 82.2181 52.0383 82.6262 51.6163C83.0274 51.1944 83.5117 50.8693 84.0789 50.6341C84.6461 50.4058 85.2548 50.2882 85.9258 50.2882C86.5967 50.2882 87.2054 50.4058 87.7727 50.6341C88.3399 50.8623 88.8241 51.1944 89.2322 51.6232C89.6403 52.0521 89.9585 52.564 90.1868 53.1589C90.415 53.7537 90.5257 54.4178 90.5257 55.1441C90.5257 56.6106 90.0968 57.7865 89.2322 58.6719V58.6788ZM88.2984 52.481C87.745 51.7892 86.9564 51.4434 85.9258 51.4434C85.407 51.4434 84.9504 51.5333 84.5561 51.7201C84.1549 51.9068 83.8229 52.1628 83.5532 52.4948C83.2834 52.8268 83.0759 53.2142 82.9306 53.6707C82.7853 54.1273 82.7162 54.6184 82.7162 55.151C82.7162 55.6836 82.7853 56.1748 82.9306 56.6313C83.0759 57.0878 83.2765 57.4752 83.5532 57.8072C83.8229 58.1393 84.1619 58.3952 84.5561 58.582C84.9573 58.7687 85.4139 58.8656 85.9258 58.8656C86.4376 58.8656 86.9011 58.7756 87.2954 58.582C87.6966 58.3952 88.0355 58.1393 88.3053 57.8003C88.582 57.4683 88.7895 57.074 88.9278 56.6313C89.0662 56.1886 89.1354 55.6906 89.1354 55.1579C89.1354 54.0719 88.8587 53.1865 88.2984 52.4948V52.481Z" fill="white"/>
<path d="M98.4529 59.8132H92.9122V50.4888H94.1918V58.6718H98.4529V59.8201V59.8132Z" fill="white"/>
<path d="M100.044 55.8565V50.4888H101.323V55.2478C101.323 55.7044 101.351 56.1401 101.413 56.5759C101.476 57.0117 101.6 57.3922 101.78 57.738C101.96 58.077 102.223 58.3537 102.562 58.5543C102.901 58.7618 103.35 58.8586 103.911 58.8586C104.471 58.8586 104.914 58.7549 105.252 58.5404C105.591 58.326 105.854 58.0493 106.041 57.7173C106.228 57.3783 106.345 56.9979 106.408 56.5621C106.463 56.1332 106.491 55.6974 106.491 55.2478V50.4888H107.77V55.8565C107.77 57.1708 107.445 58.1946 106.802 58.9139C106.159 59.6403 105.19 60 103.904 60C102.617 60 101.649 59.6403 101.005 58.9139C100.362 58.1876 100.037 57.1708 100.037 55.8565H100.044Z" fill="white"/>
<path d="M116.445 51.6302H113.726V59.8133H112.446V51.6302H109.728V50.4819H116.445V51.6302Z" fill="white"/>
<path d="M119.772 59.8132H118.492V50.4888H119.772V59.8132Z" fill="white"/>
<path d="M130.051 58.6788C129.2 59.5573 128.093 60 126.744 60C126.066 60 125.451 59.8824 124.884 59.6541C124.316 59.4259 123.832 59.0938 123.431 58.6719C123.03 58.2499 122.712 57.745 122.483 57.1432C122.255 56.5483 122.144 55.8842 122.144 55.1441C122.144 54.404 122.262 53.7399 122.49 53.145C122.718 52.5501 123.037 52.0383 123.445 51.6163C123.846 51.1944 124.33 50.8693 124.897 50.6341C125.465 50.4058 126.073 50.2882 126.744 50.2882C127.415 50.2882 128.024 50.4058 128.591 50.6341C129.158 50.8623 129.643 51.1944 130.051 51.6232C130.459 52.0521 130.777 52.564 131.005 53.1589C131.234 53.7537 131.344 54.4178 131.344 55.1441C131.344 56.6106 130.915 57.7865 130.051 58.6719V58.6788ZM129.117 52.481C128.564 51.7892 127.775 51.4434 126.744 51.4434C126.225 51.4434 125.769 51.5333 125.375 51.7201C124.973 51.9068 124.641 52.1628 124.372 52.4948C124.102 52.8268 123.894 53.2142 123.749 53.6707C123.604 54.1273 123.535 54.6184 123.535 55.151C123.535 55.6836 123.604 56.1748 123.749 56.6313C123.894 57.0878 124.095 57.4752 124.372 57.8072C124.641 58.1393 124.98 58.3952 125.375 58.582C125.776 58.7687 126.232 58.8656 126.744 58.8656C127.256 58.8656 127.72 58.7756 128.114 58.582C128.515 58.3952 128.854 58.1393 129.124 57.8003C129.401 57.4683 129.608 57.074 129.746 56.6313C129.885 56.1886 129.954 55.6906 129.954 55.1579C129.954 54.0719 129.677 53.1865 129.117 52.4948V52.481Z" fill="white"/>
<path d="M140.973 59.8132H139.894L135.003 52.4463V59.8132H133.724V50.4888H135.107L139.693 57.4683V50.4888H140.973V59.8132Z" fill="white"/>
<path d="M146.569 60C145.282 60 144.266 59.7994 143.519 59.3982L143.691 57.9179C144.528 58.5405 145.497 58.8518 146.597 58.8518C146.915 58.8518 147.212 58.8241 147.482 58.7618C147.752 58.7065 147.987 58.6166 148.188 58.499C148.388 58.3814 148.54 58.2292 148.651 58.0425C148.762 57.8626 148.817 57.6482 148.817 57.4061C148.817 57.164 148.762 56.9426 148.644 56.7628C148.527 56.5829 148.368 56.4169 148.16 56.2786C147.952 56.1333 147.697 56.0088 147.399 55.8912C147.102 55.7736 146.77 55.656 146.403 55.5315L145.469 55.2271C144.715 54.9781 144.176 54.6669 143.851 54.3002C143.525 53.9336 143.366 53.4909 143.366 52.986C143.366 52.7231 143.422 52.4257 143.525 52.1144C143.629 51.7962 143.809 51.5057 144.065 51.2359C144.321 50.9661 144.66 50.7379 145.089 50.5649C145.518 50.392 146.064 50.2952 146.721 50.2952C146.984 50.2952 147.261 50.3159 147.544 50.3505C147.828 50.3851 148.105 50.4335 148.361 50.4888C148.623 50.5442 148.866 50.6134 149.087 50.6964C149.308 50.7794 149.495 50.8555 149.647 50.9385L149.516 52.2873C148.395 51.727 147.503 51.4503 146.839 51.4503C146.583 51.4503 146.327 51.478 146.071 51.5333C145.815 51.5887 145.594 51.6717 145.4 51.7893C145.206 51.9069 145.047 52.0452 144.93 52.2182C144.812 52.3842 144.75 52.5917 144.75 52.8338C144.75 53.2281 144.916 53.5255 145.248 53.7469C145.58 53.9682 146.085 54.1826 146.763 54.3902C146.949 54.4524 147.088 54.4939 147.171 54.5078C147.254 54.5285 147.337 54.5423 147.42 54.57C147.503 54.5908 147.607 54.6253 147.745 54.6738C147.883 54.7222 148.105 54.8121 148.402 54.9435L148.859 55.1856C148.976 55.2479 149.066 55.3032 149.142 55.3447C149.218 55.3862 149.281 55.4347 149.322 55.4762L149.654 55.822C149.855 56.0365 149.993 56.2647 150.062 56.5137C150.131 56.7628 150.173 57.0602 150.201 57.4061C150.201 57.6689 150.159 57.9525 150.083 58.25C150 58.5474 149.834 58.8241 149.578 59.08C149.322 59.336 148.955 59.5504 148.478 59.7233C148.001 59.8963 147.365 59.9862 146.569 59.9931V60Z" fill="white"/>
<path d="M36.6751 37.5605L44.7821 51.6094C46.8711 55.2271 50.2951 55.2271 52.3841 51.6094L60.4911 37.5605C62.5801 33.9359 60.8716 30.9753 56.6936 30.9753H40.4727C36.2947 30.9753 34.5861 33.9359 36.6751 37.5605Z" fill="white"/>
<path d="M42.6032 52.8683L34.4962 38.8194C32.4072 35.1948 28.9832 35.1948 26.8942 38.8194L18.7872 52.8683C16.6982 56.4929 18.4067 59.4535 22.5847 59.4535H38.8056C42.9836 59.4535 44.6991 56.4929 42.6101 52.8752L42.6032 52.8683Z" fill="white"/>
<path d="M60.498 21.893L52.3911 7.84414C50.3021 4.22643 46.878 4.22643 44.789 7.84414L36.682 21.893C34.593 25.5107 36.3016 28.4713 40.4796 28.4713H56.7005C60.8785 28.4713 62.587 25.5107 60.498 21.893Z" fill="white"/>
<path d="M18.7872 6.5852L26.8942 20.6341C28.9832 24.2518 32.4072 24.2518 34.4962 20.6341L42.6032 6.5852C44.6922 2.96057 42.9836 0 38.8056 0H22.5847C18.4067 0 16.6913 2.96057 18.7872 6.5852Z" fill="white"/>
<path d="M8.99931 51.6095C11.0883 55.2272 14.5123 55.2272 16.6013 51.6095L24.7083 37.5606C26.7973 33.9429 25.0888 30.9823 20.9039 30.9823H4.68988C0.511875 30.9823 -1.2036 33.9429 0.892322 37.5606L8.99931 51.6095Z" fill="white"/>
<path d="M24.7152 21.8792L16.6083 7.83029C14.5193 4.20566 11.0952 4.20566 9.00623 7.83029L0.892322 21.8792C-1.19668 25.5038 0.511875 28.4644 4.68988 28.4644H20.9108C25.0888 28.4644 26.8042 25.5038 24.7152 21.8861V21.8792Z" fill="white"/>
</g>
<defs>
<clipPath id="clip0_2_570">
<rect width="257.238" height="60" fill="white"/>
</clipPath>
</defs>
</svg>
